<svg xmlns="http://www.w3.org/2000/svg" height="300" width="600"><g class="axes"><g class="x-axis axis" transform="translate (30,270)"><g class="tick" transform="translate(0,0)" style="opacity: 1;"><line y2="6" x2="0"/><text dy=".71em" y="9" x="0" style="text-anchor: middle;">1991</text><line class="grid-line" x0="0" y0="0" x1="0" y1="-240"/></g><g class="tick" transform="translate(26.98151950718686,0)" style="opacity: 1;"><line y2="6" x2="0"/><text dy=".71em" y="9" x="0" style="text-anchor: middle;">1992</text><line class="grid-line" x0="0" y0="0" x1="0" y1="-240"/></g><g class="tick" transform="translate(54.03696098562628,0)" style="opacity: 1;"><line y2="6" x2="0"/><text dy=".71em" y="9" x="0" style="text-anchor: middle;">1993</text><line class="grid-line" x0="0" y0="0" x1="0" y1="-240"/></g><g class="tick" transform="translate(81.01848049281315,0)" style="opacity: 1;"><line y2="6" x2="0"/><text dy=".71em" y="9" x="0" style="text-anchor: middle;">1994</text><line class="grid-line" x0="0" y0="0" x1="0" y1="-240"/></g><g class="tick" transform="translate(108,0)" style="opacity: 1;"><line y2="6" x2="0"/><text dy=".71em" y="9" x="0" style="text-anchor: middle;">1995</text><line class="grid-line" x0="0" y0="0" x1="0" y1="-240"/></g><g class="tick" transform="translate(134.98151950718687,0)" style="opacity: 1;"><line y2="6" x2="0"/><text dy=".71em" y="9" x="0" style="text-anchor: middle;">1996</text><line class="grid-line" x0="0" y0="0" x1="0" y1="-240"/></g><g class="tick" transform="translate(162.0369609856263,0)" style="opacity: 1;"><line y2="6" x2="0"/><text dy=".71em" y="9" x="0" style="text-anchor: middle;">1997</text><line class="grid-line" x0="0" y0="0" x1="0" y1="-240"/></g><g class="tick" transform="translate(189.01848049281315,0)" style="opacity: 1;"><line y2="6" x2="0"/><text dy=".71em" y="9" x="0" style="text-anchor: middle;">1998</text><line class="grid-line" x0="0" y0="0" x1="0" y1="-240"/></g><g class="tick" transform="translate(216,0)" style="opacity: 1;"><line y2="6" x2="0"/><text dy=".71em" y="9" x="0" style="text-anchor: middle;">1999</text><line class="grid-line" x0="0" y0="0" x1="0" y1="-240"/></g><g class="tick" transform="translate(242.98151950718687,0)" style="opacity: 1;"><line y2="6" x2="0"/><text dy=".71em" y="9" x="0" style="text-anchor: middle;">2000</text><line class="grid-line" x0="0" y0="0" x1="0" y1="-240"/></g><g class="tick" transform="translate(270.03696098562625,0)" style="opacity: 1;"><line y2="6" x2="0"/><text dy=".71em" y="9" x="0" style="text-anchor: middle;">2001</text><line class="grid-line" x0="0" y0="0" x1="0" y1="-240"/></g><g class="tick" transform="translate(297.0184804928132,0)" style="opacity: 1;"><line y2="6" x2="0"/><text dy=".71em" y="9" x="0" style="text-anchor: middle;">2002</text><line class="grid-line" x0="0" y0="0" x1="0" y1="-240"/></g><g class="tick" transform="translate(324,0)" style="opacity: 1;"><line y2="6" x2="0"/><text dy=".71em" y="9" x="0" style="text-anchor: middle;">2003</text><line class="grid-line" x0="0" y0="0" x1="0" y1="-240"/></g><g class="tick" transform="translate(350.9815195071869,0)" style="opacity: 1;"><line y2="6" x2="0"/><text dy=".71em" y="9" x="0" style="text-anchor: middle;">2004</text><line class="grid-line" x0="0" y0="0" x1="0" y1="-240"/></g><g class="tick" transform="translate(378.0369609856263,0)" style="opacity: 1;"><line y2="6" x2="0"/><text dy=".71em" y="9" x="0" style="text-anchor: middle;">2005</text><line class="grid-line" x0="0" y0="0" x1="0" y1="-240"/></g><g class="tick" transform="translate(405.0184804928131,0)" style="opacity: 1;"><line y2="6" x2="0"/><text dy=".71em" y="9" x="0" style="text-anchor: middle;">2006</text><line class="grid-line" x0="0" y0="0" x1="0" y1="-240"/></g><g class="tick" transform="translate(432,0)" style="opacity: 1;"><line y2="6" x2="0"/><text dy=".71em" y="9" x="0" style="text-anchor: middle;">2007</text><line class="grid-line" x0="0" y0="0" x1="0" y1="-240"/></g><g class="tick" transform="translate(458.9815195071869,0)" style="opacity: 1;"><line y2="6" x2="0"/><text dy=".71em" y="9" x="0" style="text-anchor: middle;">2008</text><line class="grid-line" x0="0" y0="0" x1="0" y1="-240"/></g><g class="tick" transform="translate(486.0369609856263,0)" style="opacity: 1;"><line y2="6" x2="0"/><text dy=".71em" y="9" x="0" style="text-anchor: middle;">2009</text><line class="grid-line" x0="0" y0="0" x1="0" y1="-240"/></g><g class="tick" transform="translate(513.0184804928132,0)" style="opacity: 1;"><line y2="6" x2="0"/><text dy=".71em" y="9" x="0" style="text-anchor: middle;">2010</text><line class="grid-line" x0="0" y0="0" x1="0" y1="-240"/></g><g class="tick" transform="translate(540,0)" style="opacity: 1;"><line y2="6" x2="0"/><text dy=".71em" y="9" x="0" style="text-anchor: middle;">2011</text><line class="grid-line" x0="0" y0="0" x1="0" y1="-240"/></g><path class="domain" d="M0,6V0H540V6"/></g><g class="y-axis axis" transform="translate (30,30)"><g class="tick" transform="translate(0,240)" style="opacity: 1;"><line x2="-6" y2="0"/><text dy=".32em" x="-9" y="0" style="text-anchor: end;">0</text><line class="grid-line" x0="0" y0="0" x1="540" y1="0"/></g><g class="tick" transform="translate(0,209.5431472081218)" style="opacity: 1;"><line x2="-6" y2="0"/><text dy=".32em" x="-9" y="0" style="text-anchor: end;">100</text><line class="grid-line" x0="0" y0="0" x1="540" y1="0"/></g><g class="tick" transform="translate(0,179.08629441624365)" style="opacity: 1;"><line x2="-6" y2="0"/><text dy=".32em" x="-9" y="0" style="text-anchor: end;">200</text><line class="grid-line" x0="0" y0="0" x1="540" y1="0"/></g><g class="tick" transform="translate(0,148.6294416243655)" style="opacity: 1;"><line x2="-6" y2="0"/><text dy=".32em" x="-9" y="0" style="text-anchor: end;">300</text><line class="grid-line" x0="0" y0="0" x1="540" y1="0"/></g><g class="tick" transform="translate(0,118.17258883248732)" style="opacity: 1;"><line x2="-6" y2="0"/><text dy=".32em" x="-9" y="0" style="text-anchor: end;">400</text><line class="grid-line" x0="0" y0="0" x1="540" y1="0"/></g><g class="tick" transform="translate(0,87.71573604060913)" style="opacity: 1;"><line x2="-6" y2="0"/><text dy=".32em" x="-9" y="0" style="text-anchor: end;">500</text><line class="grid-line" x0="0" y0="0" x1="540" y1="0"/></g><g class="tick" transform="translate(0,57.258883248730974)" style="opacity: 1;"><line x2="-6" y2="0"/><text dy=".32em" x="-9" y="0" style="text-anchor: end;">600</text><line class="grid-line" x0="0" y0="0" x1="540" y1="0"/></g><g class="tick" transform="translate(0,26.80203045685279)" style="opacity: 1;"><line x2="-6" y2="0"/><text dy=".32em" x="-9" y="0" style="text-anchor: end;">700</text><line class="grid-line" x0="0" y0="0" x1="540" y1="0"/></g><path class="domain" d="M-6,0H0V240H-6"/></g></g><defs><clipPath id="clip-path"><rect width="530" height="230" x="0" y="0"/></clipPath></defs><g class="chart" transform="translate(30,30)" clip-path="clippath"><rect class="bars" height="81.01522842639594" width="23" y="158.98477157360406" x="0"/><rect class="bars" height="96.5482233502538" width="23" y="143.4517766497462" x="26.98151950718686"/><rect class="bars" height="91.06598984771574" width="23" y="148.93401015228426" x="54.03696098562628"/><rect class="bars" height="87.41116751269035" width="23" y="152.58883248730965" x="81.01848049281315"/><rect class="bars" height="133.4010152284264" width="23" y="106.59898477157361" x="108"/><rect class="bars" height="122.13197969543147" width="23" y="117.86802030456853" x="134.98151950718687"/><rect class="bars" height="117.56345177664974" width="23" y="122.43654822335026" x="162.0369609856263"/><rect class="bars" height="158.0710659898477" width="23" y="81.92893401015229" x="189.01848049281315"/><rect class="bars" height="120.60913705583755" width="23" y="119.39086294416245" x="216"/><rect class="bars" height="153.502538071066" width="23" y="86.497461928934" x="242.98151950718687"/><rect class="bars" height="158.6802030456853" width="23" y="81.31979695431471" x="270.03696098562625"/><rect class="bars" height="155.93908629441623" width="23" y="84.06091370558377" x="297.0184804928132"/><rect class="bars" height="160.81218274111677" width="23" y="79.18781725888324" x="324"/><rect class="bars" height="195.53299492385787" width="23" y="44.467005076142115" x="350.9815195071869"/><rect class="bars" height="174.51776649746193" width="23" y="65.48223350253808" x="378.0369609856263"/><rect class="bars" height="185.78680203045687" width="23" y="54.21319796954314" x="405.0184804928131"/><rect class="bars" height="240" width="23" y="0" x="432"/><rect class="bars" height="184.26395939086294" width="23" y="55.736040609137056" x="458.9815195071869"/><rect class="bars" height="207.41116751269033" width="23" y="32.58883248730966" x="486.0369609856263"/><rect class="bars" height="206.19289340101523" width="23" y="33.80710659898476" x="513.0184804928132"/><rect class="bars" height="203.4517766497462" width="23" y="36.54822335025381" x="540"/></g></svg>