<svg xmlns="http://www.w3.org/2000/svg" height="300" width="600"><g class="axes"><g class="x-axis axis" transform="translate (30,270)"><g class="tick" transform="translate(0,0)" style="opacity: 1;"><line y2="6" x2="0"/><text dy=".71em" y="9" x="0" style="text-anchor: middle;">1991</text><line class="grid-line" x0="0" y0="0" x1="0" y1="-240"/></g><g class="tick" transform="translate(26.98151950718686,0)" style="opacity: 1;"><line y2="6" x2="0"/><text dy=".71em" y="9" x="0" style="text-anchor: middle;">1992</text><line class="grid-line" x0="0" y0="0" x1="0" y1="-240"/></g><g class="tick" transform="translate(54.03696098562628,0)" style="opacity: 1;"><line y2="6" x2="0"/><text dy=".71em" y="9" x="0" style="text-anchor: middle;">1993</text><line class="grid-line" x0="0" y0="0" x1="0" y1="-240"/></g><g class="tick" transform="translate(81.01848049281315,0)" style="opacity: 1;"><line y2="6" x2="0"/><text dy=".71em" y="9" x="0" style="text-anchor: middle;">1994</text><line class="grid-line" x0="0" y0="0" x1="0" y1="-240"/></g><g class="tick" transform="translate(108,0)" style="opacity: 1;"><line y2="6" x2="0"/><text dy=".71em" y="9" x="0" style="text-anchor: middle;">1995</text><line class="grid-line" x0="0" y0="0" x1="0" y1="-240"/></g><g class="tick" transform="translate(134.98151950718687,0)" style="opacity: 1;"><line y2="6" x2="0"/><text dy=".71em" y="9" x="0" style="text-anchor: middle;">1996</text><line class="grid-line" x0="0" y0="0" x1="0" y1="-240"/></g><g class="tick" transform="translate(162.0369609856263,0)" style="opacity: 1;"><line y2="6" x2="0"/><text dy=".71em" y="9" x="0" style="text-anchor: middle;">1997</text><line class="grid-line" x0="0" y0="0" x1="0" y1="-240"/></g><g class="tick" transform="translate(189.01848049281315,0)" style="opacity: 1;"><line y2="6" x2="0"/><text dy=".71em" y="9" x="0" style="text-anchor: middle;">1998</text><line class="grid-line" x0="0" y0="0" x1="0" y1="-240"/></g><g class="tick" transform="translate(216,0)" style="opacity: 1;"><line y2="6" x2="0"/><text dy=".71em" y="9" x="0" style="text-anchor: middle;">1999</text><line class="grid-line" x0="0" y0="0" x1="0" y1="-240"/></g><g class="tick" transform="translate(242.98151950718687,0)" style="opacity: 1;"><line y2="6" x2="0"/><text dy=".71em" y="9" x="0" style="text-anchor: middle;">2000</text><line class="grid-line" x0="0" y0="0" x1="0" y1="-240"/></g><g class="tick" transform="translate(270.03696098562625,0)" style="opacity: 1;"><line y2="6" x2="0"/><text dy=".71em" y="9" x="0" style="text-anchor: middle;">2001</text><line class="grid-line" x0="0" y0="0" x1="0" y1="-240"/></g><g class="tick" transform="translate(297.0184804928132,0)" style="opacity: 1;"><line y2="6" x2="0"/><text dy=".71em" y="9" x="0" style="text-anchor: middle;">2002</text><line class="grid-line" x0="0" y0="0" x1="0" y1="-240"/></g><g class="tick" transform="translate(324,0)" style="opacity: 1;"><line y2="6" x2="0"/><text dy=".71em" y="9" x="0" style="text-anchor: middle;">2003</text><line class="grid-line" x0="0" y0="0" x1="0" y1="-240"/></g><g class="tick" transform="translate(350.9815195071869,0)" style="opacity: 1;"><line y2="6" x2="0"/><text dy=".71em" y="9" x="0" style="text-anchor: middle;">2004</text><line class="grid-line" x0="0" y0="0" x1="0" y1="-240"/></g><g class="tick" transform="translate(378.0369609856263,0)" style="opacity: 1;"><line y2="6" x2="0"/><text dy=".71em" y="9" x="0" style="text-anchor: middle;">2005</text><line class="grid-line" x0="0" y0="0" x1="0" y1="-240"/></g><g class="tick" transform="translate(405.0184804928131,0)" style="opacity: 1;"><line y2="6" x2="0"/><text dy=".71em" y="9" x="0" style="text-anchor: middle;">2006</text><line class="grid-line" x0="0" y0="0" x1="0" y1="-240"/></g><g class="tick" transform="translate(432,0)" style="opacity: 1;"><line y2="6" x2="0"/><text dy=".71em" y="9" x="0" style="text-anchor: middle;">2007</text><line class="grid-line" x0="0" y0="0" x1="0" y1="-240"/></g><g class="tick" transform="translate(458.9815195071869,0)" style="opacity: 1;"><line y2="6" x2="0"/><text dy=".71em" y="9" x="0" style="text-anchor: middle;">2008</text><line class="grid-line" x0="0" y0="0" x1="0" y1="-240"/></g><g class="tick" transform="translate(486.0369609856263,0)" style="opacity: 1;"><line y2="6" x2="0"/><text dy=".71em" y="9" x="0" style="text-anchor: middle;">2009</text><line class="grid-line" x0="0" y0="0" x1="0" y1="-240"/></g><g class="tick" transform="translate(513.0184804928132,0)" style="opacity: 1;"><line y2="6" x2="0"/><text dy=".71em" y="9" x="0" style="text-anchor: middle;">2010</text><line class="grid-line" x0="0" y0="0" x1="0" y1="-240"/></g><g class="tick" transform="translate(540,0)" style="opacity: 1;"><line y2="6" x2="0"/><text dy=".71em" y="9" x="0" style="text-anchor: middle;">2011</text><line class="grid-line" x0="0" y0="0" x1="0" y1="-240"/></g><path class="domain" d="M0,6V0H540V6"/></g><g class="y-axis axis" transform="translate (30,30)"><g class="tick" transform="translate(0,240)" style="opacity: 1;"><line x2="-6" y2="0"/><text dy=".32em" x="-9" y="0" style="text-anchor: end;">0</text><line class="grid-line" x0="0" y0="0" x1="540" y1="0"/></g><g class="tick" transform="translate(0,209.5431472081218)" style="opacity: 1;"><line x2="-6" y2="0"/><text dy=".32em" x="-9" y="0" style="text-anchor: end;">100</text><line class="grid-line" x0="0" y0="0" x1="540" y1="0"/></g><g class="tick" transform="translate(0,179.08629441624365)" style="opacity: 1;"><line x2="-6" y2="0"/><text dy=".32em" x="-9" y="0" style="text-anchor: end;">200</text><line class="grid-line" x0="0" y0="0" x1="540" y1="0"/></g><g class="tick" transform="translate(0,148.6294416243655)" style="opacity: 1;"><line x2="-6" y2="0"/><text dy=".32em" x="-9" y="0" style="text-anchor: end;">300</text><line class="grid-line" x0="0" y0="0" x1="540" y1="0"/></g><g class="tick" transform="translate(0,118.17258883248732)" style="opacity: 1;"><line x2="-6" y2="0"/><text dy=".32em" x="-9" y="0" style="text-anchor: end;">400</text><line class="grid-line" x0="0" y0="0" x1="540" y1="0"/></g><g class="tick" transform="translate(0,87.71573604060913)" style="opacity: 1;"><line x2="-6" y2="0"/><text dy=".32em" x="-9" y="0" style="text-anchor: end;">500</text><line class="grid-line" x0="0" y0="0" x1="540" y1="0"/></g><g class="tick" transform="translate(0,57.258883248730974)" style="opacity: 1;"><line x2="-6" y2="0"/><text dy=".32em" x="-9" y="0" style="text-anchor: end;">600</text><line class="grid-line" x0="0" y0="0" x1="540" y1="0"/></g><g class="tick" transform="translate(0,26.80203045685279)" style="opacity: 1;"><line x2="-6" y2="0"/><text dy=".32em" x="-9" y="0" style="text-anchor: end;">700</text><line class="grid-line" x0="0" y0="0" x1="540" y1="0"/></g><path class="domain" d="M-6,0H0V240H-6"/></g></g><defs><clipPath id="clip-path"><rect width="530" height="230" x="0" y="0"/></clipPath></defs><g class="chart" transform="translate(30,30)" clip-path="clippath"><path fill="none" stroke="red" class="chart-line" d="M0,158.98477157360406L26.98151950718686,143.4517766497462L54.03696098562628,148.93401015228426L81.01848049281315,152.58883248730965L108,106.59898477157361L134.98151950718687,117.86802030456853L162.0369609856263,122.43654822335026L189.01848049281315,81.92893401015229L216,119.39086294416245L242.98151950718687,86.497461928934L270.03696098562625,81.31979695431471L297.0184804928132,84.06091370558377L324,79.18781725888324L350.9815195071869,44.467005076142115L378.0369609856263,65.48223350253808L405.0184804928131,54.21319796954314L432,0L458.9815195071869,55.736040609137056L486.0369609856263,32.58883248730966L513.0184804928132,33.80710659898476L540,36.54822335025381"/><path class="chart-area" d="M0,158.98477157360406L26.98151950718686,143.4517766497462L54.03696098562628,148.93401015228426L81.01848049281315,152.58883248730965L108,106.59898477157361L134.98151950718687,117.86802030456853L162.0369609856263,122.43654822335026L189.01848049281315,81.92893401015229L216,119.39086294416245L242.98151950718687,86.497461928934L270.03696098562625,81.31979695431471L297.0184804928132,84.06091370558377L324,79.18781725888324L350.9815195071869,44.467005076142115L378.0369609856263,65.48223350253808L405.0184804928131,54.21319796954314L432,0L458.9815195071869,55.736040609137056L486.0369609856263,32.58883248730966L513.0184804928132,33.80710659898476L540,36.54822335025381L540,240L513.0184804928132,240L486.0369609856263,240L458.9815195071869,240L432,240L405.0184804928131,240L378.0369609856263,240L350.9815195071869,240L324,240L297.0184804928132,240L270.03696098562625,240L242.98151950718687,240L216,240L189.01848049281315,240L162.0369609856263,240L134.98151950718687,240L108,240L81.01848049281315,240L54.03696098562628,240L26.98151950718686,240L0,240Z" style="fill: red; opacity: 0.3;"/><circle class="dots dots" r="5" cy="158.98477157360406" cx="0" style="stroke: red;"/><circle class="dots dots" r="5" cy="143.4517766497462" cx="26.98151950718686" style="stroke: red;"/><circle class="dots dots" r="5" cy="148.93401015228426" cx="54.03696098562628" style="stroke: red;"/><circle class="dots dots" r="5" cy="152.58883248730965" cx="81.01848049281315" style="stroke: red;"/><circle class="dots dots" r="5" cy="106.59898477157361" cx="108" style="stroke: red;"/><circle class="dots dots" r="5" cy="117.86802030456853" cx="134.98151950718687" style="stroke: red;"/><circle class="dots dots" r="5" cy="122.43654822335026" cx="162.0369609856263" style="stroke: red;"/><circle class="dots dots" r="5" cy="81.92893401015229" cx="189.01848049281315" style="stroke: red;"/><circle class="dots dots" r="5" cy="119.39086294416245" cx="216" style="stroke: red;"/><circle class="dots dots" r="5" cy="86.497461928934" cx="242.98151950718687" style="stroke: red;"/><circle class="dots dots" r="5" cy="81.31979695431471" cx="270.03696098562625" style="stroke: red;"/><circle class="dots dots" r="5" cy="84.06091370558377" cx="297.0184804928132" style="stroke: red;"/><circle class="dots dots" r="5" cy="79.18781725888324" cx="324" style="stroke: red;"/><circle class="dots dots" r="5" cy="44.467005076142115" cx="350.9815195071869" style="stroke: red;"/><circle class="dots dots" r="5" cy="65.48223350253808" cx="378.0369609856263" style="stroke: red;"/><circle class="dots dots" r="5" cy="54.21319796954314" cx="405.0184804928131" style="stroke: red;"/><circle class="dots dots" r="5" cy="0" cx="432" style="stroke: red;"/><circle class="dots dots" r="5" cy="55.736040609137056" cx="458.9815195071869" style="stroke: red;"/><circle class="dots dots" r="5" cy="32.58883248730966" cx="486.0369609856263" style="stroke: red;"/><circle class="dots dots" r="5" cy="33.80710659898476" cx="513.0184804928132" style="stroke: red;"/><circle class="dots dots" r="5" cy="36.54822335025381" cx="540" style="stroke: red;"/></g></svg>